<svg width="328" height="296" viewBox="0 0 328 296" fill="none" xmlns="http://www.w3.org/2000/svg">
<path d="M262.865 110.315H253.6V88.4241C253.6 84.3708 251.681 82.4002 247.733 82.4002C242.863 82.4002 240.683 86.4962 240.683 90.5549V110.315H231.421V74.9255H240.423V78.8549C242.933 75.8309 246.527 74.1268 250.487 74.1268C258.237 74.1268 262.865 78.9481 262.865 87.0241V110.315Z" fill="white"/>
<path d="M216.199 110.315H206.936V74.9255H215.936V79.5108C217.567 76.8775 220.456 74.3922 225.545 74.3922C226.273 74.3922 226.9 74.3922 227.667 74.5335L228.075 74.6095V83.2668H225.48C219.408 83.2668 216.199 86.4095 216.199 92.3535V110.315Z" fill="white"/>
<path d="M184.456 110.824C176.748 110.824 172.148 106.003 172.148 97.9254V74.6334H181.411V96.5267C181.411 100.635 183.276 102.549 187.277 102.549C192.148 102.549 194.327 98.4534 194.327 94.3948V74.6334H203.589V110.315H194.591V106.027C192.025 109.133 188.479 110.824 184.456 110.824Z" fill="white"/>
<path d="M163.972 110.849C156.323 110.849 152.909 107.98 152.909 101.548V82.6002H147.66V75.1922H152.909V65.1988H162.107V75.1922H168.801V82.6002H162.107V100.683C162.107 102.57 162.927 103.173 165.481 103.173H168.801V110.54L168.305 110.583C166.824 110.715 165.293 110.849 163.972 110.849Z" fill="white"/>
<path d="M121.948 88.5468H137.779C136.968 83.9722 134.097 81.3642 129.829 81.3642C125.493 81.3642 122.779 83.8428 121.948 88.5468ZM130.028 110.812C119.641 110.812 112.665 103.379 112.665 92.3175C112.665 81.2548 119.589 73.8228 129.896 73.8228C135.067 73.8228 139.433 75.6775 142.521 79.1882C145.535 82.6108 147.127 87.3588 147.127 92.9175V95.4215H121.857C122.523 100.56 125.361 103.271 130.092 103.271C133.628 103.271 136.147 101.674 137.376 98.6522L137.504 98.3401H146.413L146.26 98.9668C144.477 106.273 138.257 110.812 130.028 110.812Z" fill="white"/>
<path d="M83.292 76.8453V70.7974H94.2787C97.7934 70.7974 101.983 71.9227 101.983 77.2854C101.983 81.664 99.2947 84.1747 94.6067 84.1747H83.292V76.8453ZM83.356 91.7427H91.6054L102.077 110.295L112.663 110.317L101.251 90.2587C102.733 90.004 103.976 89.5054 103.976 89.5054C109.889 86.3387 111.603 81.7493 111.603 76.2867C111.603 68.292 105.893 62.8947 95.132 62.8947H73.936V76.2733V76.9587V110.331H83.356V91.7427Z" fill="white"/>
<path d="M215.101 176.247C213.613 176.247 212.585 176.189 211.429 176.043L210.995 175.987V168.439H214.643C219.228 168.439 219.723 164.927 219.723 163.416C219.723 161.367 218.897 158.725 218.176 156.655L208.097 127.732H218.087L220.955 136.675C222.751 142.532 224.401 148.364 225.869 154.04C227.607 147.516 229.343 141.672 230.835 136.749L233.705 127.732H243.433L230.14 165.584C227.376 173.456 223.44 176.247 215.101 176.247Z" fill="white"/>
<path d="M163.672 163.515V128.124H172.935L172.963 163.524L163.672 163.515Z" fill="white"/>
<path d="M172.884 123.949H163.752V115.076H172.884V123.949Z" fill="white"/>
<path d="M160.135 163.524H150.872V115.076H160.135V163.524Z" fill="white"/>
<path d="M129.973 135.011C124.701 135.011 121.677 138.856 121.677 145.564C121.677 152.271 124.701 156.116 129.973 156.116C135.247 156.116 138.271 152.271 138.271 145.564C138.271 138.856 135.247 135.011 129.973 135.011ZM129.973 164.057C119.353 164.057 112.217 156.626 112.217 145.564C112.217 134.502 119.353 127.068 129.973 127.068C140.555 127.068 147.665 134.502 147.665 145.564C147.665 156.626 140.555 164.057 129.973 164.057Z" fill="white"/>
<path d="M249.416 136.234H247.401V129.35H244.527V127.775H252.303V129.35H249.416V136.234Z" fill="white"/>
<path d="M260.939 130.263L258.868 136.232H257.469L255.399 130.263H255.375V136.232H253.548V127.787H256.295L258.239 133.46H258.263L260.207 127.787H262.895V136.232H260.963V130.263H260.939Z" fill="white"/>
<path d="M195.016 164.003C184.253 164.564 178.52 158.644 176.821 150.471C176.572 149.106 176.443 147.655 176.443 146.128C176.443 135.136 183.071 128.14 193.177 128.14C202.036 128.14 207.943 133.271 208.927 141.331H200.657C199.869 137.067 196.852 135.136 193.177 135.136C188.256 135.136 184.908 138.6 184.908 146.128C184.908 153.656 188.387 157.122 193.177 157.122C196.917 157.122 200.133 155.056 200.789 150.526H209.057C208.204 158.322 202.736 163.326 195.016 164.003Z" fill="white"/>
<path d="M94.08 138.359H83.292V123.98H94.08C98.9227 123.98 101.591 126.545 101.591 131.203C101.591 135.884 98.9934 138.359 94.08 138.359ZM94.4747 115.747H73.936V163.475H83.356V146.887L94.4747 146.593C105.236 146.593 111.012 140.329 111.012 131.203C111.012 122.009 105.236 115.747 94.4747 115.747Z" fill="white"/>
<path d="M194.375 160.94L201.075 167.625L183.252 185.405L164.004 204.604H211.3C233.371 203.221 252.579 195.025 268.921 180.015C286.923 163.48 295.925 142.944 295.925 118.409C295.925 101.86 291.823 87.132 283.631 74.2227C279.681 67.9947 274.781 62.1867 268.921 56.8053C266.672 54.7374 264.367 52.7986 262.008 50.9906C245.496 38.332 226.324 32.0027 204.492 32.0027H116.707C94.636 33.384 75.4293 41.5826 59.0853 56.5933C41.0853 73.128 32.084 93.6627 32.084 118.199C32.084 132.689 35.228 145.781 41.5093 157.48L41.4973 157.495C42.3427 159.055 43.244 160.595 44.2027 162.108C48.156 168.337 53.0547 174.144 58.9133 179.525C59.4507 180.021 59.992 180.507 60.5373 180.987L37.928 203.536C37.436 203.092 36.9427 202.649 36.456 202.195C30.6653 196.799 25.5693 191.097 21.1533 185.1C20.108 183.683 19.1067 182.245 18.1387 180.793L18.132 180.8C17.964 180.545 17.8013 180.289 17.6347 180.033C17.4653 179.775 17.2987 179.516 17.1307 179.257C17.044 179.123 16.96 178.988 16.8747 178.853C11.9107 171.059 8.02666 162.792 5.232 154.049L5.31333 154.023C1.776 142.853 0 130.913 0 118.199C0 84.772 12.2107 56.6813 36.628 33.924C37.3267 33.2733 38.0307 32.6347 38.736 32.0027C60.8107 12.236 86.6667 1.57202 116.295 0H203.956C237.82 0 266.961 11.38 291.381 34.1373C297.169 39.5346 302.267 45.2333 306.683 51.2293C320.895 70.5213 328.007 92.912 328.007 118.409C328.007 151.836 315.797 179.927 291.381 202.683C290.681 203.335 289.979 203.972 289.272 204.604C267.196 224.372 241.341 235.036 211.713 236.607H164.004L201.068 273.579L178.608 295.979L118.995 236.513L103.048 220.605L118.877 204.816L119.179 204.516L138.577 185.165L178.612 145.161" fill="white"/>
</svg>
