<svg version="1.1" id="Layer_1" xmlns="http://www.w3.org/2000/svg" xmlns:xlink="http://www.w3.org/1999/xlink" x="0px" y="0px"
	 width="100%" viewBox="0 0 1190 320" enable-background="new 0 0 1190 320" xml:space="preserve">
<path fill="#FFFFFF" opacity="1.000000" stroke="none" 
	d="
M376.783142,255.286316 
	C382.028534,262.877686 387.230743,270.072906 391.967346,277.562561 
	C397.495178,286.303375 400.174103,296.050964 398.854797,306.328247 
	C397.846680,314.181305 391.749939,318.158844 381.604828,314.129700 
	C373.370300,310.859406 367.501923,304.663849 362.071106,298.115723 
	C353.144287,287.352386 344.898376,276.013062 335.758911,265.440857 
	C327.964447,256.424500 319.694061,247.739365 310.961517,239.632278 
	C296.440338,226.151199 280.564514,214.419418 263.258209,204.601425 
	C248.103882,196.004257 232.554199,188.312881 215.636734,184.099518 
	C203.447113,181.063644 190.971039,179.100754 178.551987,177.097946 
	C172.894913,176.185638 167.061905,175.980545 161.317291,176.061844 
	C138.090103,176.390549 115.667503,180.954514 94.042923,189.447968 
	C71.257347,198.397400 50.597515,211.077240 30.999390,225.565125 
	C25.375196,229.722809 20.250898,234.553925 14.657553,238.757111 
	C10.697599,241.732864 7.559165,240.379456 5.913728,235.535339 
	C3.312450,227.877274 6.030672,220.795273 8.659789,213.894547 
	C14.661765,198.141022 24.274105,184.665405 35.349869,172.040436 
	C48.418240,157.144165 62.819187,143.780136 78.539055,131.756378 
	C79.860542,130.745605 80.170738,128.412659 80.950768,126.693977 
	C79.533409,126.128258 78.158478,125.392036 76.691200,125.026947 
	C70.964783,123.602043 64.629761,123.390350 59.581833,120.721298 
	C48.163822,114.684120 42.147449,98.472321 49.524055,84.986206 
	C59.170269,67.350746 74.896683,58.670708 94.167114,56.157196 
	C101.922760,55.145599 103.300407,57.013664 103.965767,65.071518 
	C104.466797,71.139259 104.747231,77.228867 104.975327,83.314384 
	C105.170563,88.523354 107.052071,90.018066 111.530777,87.807426 
	C124.009636,81.647987 137.090622,77.152702 150.808319,75.201736 
	C163.328293,73.421112 175.907181,73.539474 188.577515,75.677750 
	C203.324112,78.166412 217.542587,82.247849 230.586700,89.208252 
	C243.464294,96.079781 255.896240,103.994003 267.733276,112.544937 
	C277.914337,119.899590 286.962494,128.818558 296.550201,137.000565 
	C300.356262,140.248611 308.549591,139.670532 310.498657,135.567245 
	C311.299530,133.881088 310.386719,130.655182 309.176147,128.853561 
	C299.009094,113.722755 288.372437,98.905167 278.316650,83.702606 
	C269.718536,70.703766 263.435516,56.616386 262.080536,40.853081 
	C261.569672,34.909863 261.684265,28.863487 262.104218,22.905766 
	C262.422516,18.390495 264.525208,13.432507 268.822296,12.501131 
	C271.806641,11.854287 276.170135,14.402803 278.979706,16.680502 
	C289.603058,25.292877 296.494171,36.631378 300.982513,49.444687 
	C309.033539,72.428932 316.992157,95.445557 325.005951,118.442863 
	C325.739441,120.547821 326.592651,122.611061 327.586456,125.206009 
	C331.428528,123.973022 335.323425,122.723076 340.439636,121.081192 
	C336.757538,108.626213 333.156097,96.281837 329.455048,83.967415 
	C325.118195,69.537567 320.116547,55.276077 316.520264,40.666595 
	C314.278412,31.559393 313.969574,21.955950 313.094574,12.547185 
	C312.878296,10.221724 313.641174,7.732422 314.296539,5.415325 
	C315.341705,1.720193 318.402496,2.647787 320.728973,3.365575 
	C330.981903,6.528892 337.945770,13.621620 343.265778,22.672661 
	C350.926575,35.706184 354.688934,49.908199 355.957855,64.816925 
	C356.849915,75.298073 357.762177,85.810089 357.857208,96.315636 
	C357.926422,103.971764 356.945618,111.675400 355.934967,119.291786 
	C355.054535,125.926826 360.006927,128.598969 363.812714,131.930923 
	C378.360809,144.667847 393.240021,156.991348 402.345367,174.704712 
	C410.095184,189.780991 404.041687,201.294083 391.541931,209.174789 
	C381.141571,215.731873 369.470612,218.534439 357.967651,221.937439 
	C353.218140,223.342529 352.135437,225.434677 355.105774,229.498596 
	C358.845001,234.614456 362.878601,239.524323 366.948883,244.386017 
	C370.010315,248.042694 373.329620,251.483490 376.783142,255.286316 
z"/>
<path fill="#FFFFFF" opacity="1.000000" stroke="none" 
	d="
M581.360962,211.858536 
	C575.367493,211.674973 569.697754,211.940521 564.260864,210.940445 
	C552.782471,208.829071 547.207092,200.353622 545.180115,189.884949 
	C543.327332,180.315979 542.971863,170.454422 542.012939,160.716248 
	C541.595520,156.477631 541.723511,152.140549 540.858337,148.004074 
	C540.077454,144.270477 538.717773,139.562607 534.297913,139.397141 
	C531.022949,139.274551 526.596985,140.925186 524.513916,143.354919 
	C518.208313,150.709915 511.714722,158.266678 507.280548,166.779404 
	C500.337280,180.109024 495.047089,194.297607 488.967987,208.083237 
	C488.452271,209.252747 487.332397,210.930817 486.386047,211.004974 
	C481.569458,211.382370 476.389038,212.340805 472.019836,210.948975 
	C469.906372,210.275726 468.472260,204.973129 468.144348,201.627945 
	C466.799927,187.912888 465.886414,174.151489 465.039429,160.393265 
	C464.491241,151.489151 464.190247,142.563614 464.027954,133.643158 
	C463.611084,110.730087 463.036804,87.813484 463.113373,64.900269 
	C463.157928,51.562672 464.302185,38.227093 465.027496,24.894730 
	C465.186646,21.969358 465.570251,19.045568 466.042755,16.152449 
	C466.271179,14.754113 466.665100,13.229940 467.464020,12.103004 
	C471.907196,5.835541 485.496918,3.480488 490.839661,8.769552 
	C493.080597,10.987952 493.838593,15.527797 493.869293,19.024569 
	C494.106415,46.017044 494.223480,73.015121 493.911316,100.006073 
	C493.739624,114.847229 492.743073,129.681976 491.970123,144.511887 
	C491.512451,153.292145 490.765656,162.057343 491.230988,171.301270 
	C492.149811,169.458160 493.149475,167.650497 493.974731,165.766434 
	C501.085876,149.531281 509.358246,133.960922 522.186035,121.458252 
	C529.786743,114.050179 538.648499,109.355919 550.048828,109.780655 
	C557.482056,110.057594 563.539978,115.388145 564.830627,120.458931 
	C567.089722,129.334030 568.947815,138.407700 569.838318,147.509293 
	C570.866699,158.019760 570.423706,168.666824 571.135620,179.219757 
	C571.375183,182.770691 572.722351,186.465607 574.409790,189.645538 
	C576.586243,193.747086 581.766113,194.314774 586.344788,190.980911 
	C590.045044,188.286606 593.355957,185.015640 596.584229,181.748199 
	C597.276917,181.047073 597.309082,179.101974 596.908020,177.997757 
	C585.709290,147.158295 605.168396,119.462952 631.980957,112.180634 
	C651.913208,106.767029 670.832336,109.311623 687.533875,122.922043 
	C702.396545,135.033981 708.271545,150.798584 705.773621,169.189056 
	C703.808350,183.657578 695.399902,195.075104 683.117493,202.886078 
	C666.527344,213.436478 648.370850,215.255020 629.973999,208.783951 
	C622.705078,206.227097 616.091736,201.435593 609.699707,196.924850 
	C606.829163,194.899139 605.479492,194.644119 603.232788,197.203369 
	C597.364075,203.888641 590.510986,209.213669 581.360962,211.858536 
M625.000000,156.801529 
	C624.971741,163.474045 624.434631,170.170044 627.963684,176.365356 
	C632.469543,184.275436 638.091675,190.999161 647.717041,191.883591 
	C658.326599,192.858429 666.083801,187.018005 670.685852,178.301895 
	C677.433716,165.521820 676.656250,152.452820 667.838745,140.628265 
	C661.690735,132.383560 649.624084,126.819672 638.622375,134.293091 
	C631.229431,139.315079 626.190857,146.575577 625.000000,156.801529 
z"/>
<path fill="#FFFFFF" opacity="1.000000" stroke="none" 
	d="
M1139.945801,213.000000 
	C1119.223633,214.691650 1108.402710,195.893631 1114.846191,177.662643 
	C1117.884766,169.065033 1121.433472,160.637299 1125.016602,152.246063 
	C1127.596802,146.203659 1125.811768,143.494980 1119.343140,142.892365 
	C1112.593750,142.263580 1105.865601,141.036407 1099.249878,139.534546 
	C1096.743164,138.965485 1095.843750,139.130829 1094.947021,141.559006 
	C1089.140991,157.280350 1082.429565,172.634750 1071.934204,185.836807 
	C1059.391724,201.613800 1044.133911,212.393890 1022.606628,212.176941 
	C1009.795654,212.047821 997.584595,210.314621 986.596497,203.783875 
	C973.490479,195.994354 964.990601,184.659012 961.922607,169.324310 
	C958.682068,153.126755 963.823730,139.246185 974.223816,127.647224 
	C983.994568,116.750130 996.909912,110.711838 1011.904358,109.990425 
	C1022.111328,109.499352 1032.262695,109.848526 1041.323242,115.146217 
	C1051.826294,121.287476 1057.891357,129.934967 1057.163452,143.001694 
	C1056.527466,154.418762 1050.769287,161.662628 1041.400391,166.913239 
	C1029.740967,173.447647 1009.747925,173.973434 993.600220,168.093140 
	C994.704102,179.730087 1003.117065,188.793579 1016.010864,190.691315 
	C1029.385498,192.659821 1042.750854,190.850266 1054.164917,182.301865 
	C1063.027222,175.664642 1070.268921,167.579819 1075.061646,157.506470 
	C1078.576782,150.118103 1082.026855,142.693222 1085.218384,135.162781 
	C1085.652954,134.137360 1084.853027,131.740112 1083.884033,131.101013 
	C1075.114990,125.317543 1070.916138,108.745888 1076.381226,99.066986 
	C1079.184570,94.102203 1082.775024,91.166817 1089.018555,91.895203 
	C1094.537231,92.539001 1097.552979,96.123932 1099.551758,100.327621 
	C1101.159058,103.707924 1101.071411,107.859543 1102.079712,111.575653 
	C1102.510498,113.163750 1103.561035,115.498894 1104.764893,115.809723 
	C1111.299805,117.497032 1117.920776,119.063690 1124.608643,119.887260 
	C1131.462769,120.731277 1138.460571,120.361679 1145.337402,121.079773 
	C1155.151978,122.104660 1161.031738,132.654266 1157.368042,143.055298 
	C1152.799316,156.026505 1147.585571,168.769470 1142.882812,181.695557 
	C1142.021729,184.062164 1141.885864,186.865479 1142.101929,189.408859 
	C1142.396362,192.875320 1145.380371,193.803757 1147.962646,192.832993 
	C1151.184204,191.621887 1154.350464,189.733719 1156.936157,187.452759 
	C1168.344727,177.389114 1175.513794,164.196823 1182.970581,151.246185 
	C1183.523315,150.286362 1183.930420,149.243347 1184.430542,148.251785 
	C1184.485229,148.143417 1184.708496,148.120102 1185.405396,147.818665 
	C1189.120117,155.509781 1189.969482,163.781250 1186.124512,171.025726 
	C1180.714966,181.217957 1174.395630,191.148483 1167.062012,200.032440 
	C1160.504150,207.976562 1151.575806,213.365707 1139.945801,213.000000 
M1032.667725,149.862473 
	C1036.855713,141.307144 1031.162964,132.785965 1022.736023,131.157242 
	C1004.873840,127.704903 992.574585,143.667343 992.430359,158.951477 
	C1001.508057,160.835861 1010.765259,160.969070 1019.591919,158.477509 
	C1024.154785,157.189529 1027.951416,153.187027 1032.667725,149.862473 
z"/>
<path fill="#FFFFFF" opacity="1.000000" stroke="none" 
	d="
M869.000000,264.000610 
	C869.000000,275.830994 869.089172,287.162567 868.953918,298.491455 
	C868.903198,302.740112 868.449646,306.996429 867.956726,311.223236 
	C867.589050,314.376190 858.938904,318.206787 854.724792,316.806549 
	C850.940857,315.549225 846.624573,314.362885 843.973267,311.713898 
	C841.863220,309.605560 841.286011,305.372437 841.101501,302.023529 
	C839.903870,280.284302 838.887268,258.533264 838.040222,236.777191 
	C837.492310,222.703186 836.931335,208.608994 837.107910,194.533020 
	C837.302429,179.025879 838.139038,163.517532 839.068359,148.032043 
	C839.724731,137.094070 840.994507,126.192680 842.015076,115.277252 
	C842.089417,114.482628 842.149475,113.555237 842.579346,112.945686 
	C846.610901,107.228935 852.538391,110.615936 857.565674,110.198761 
	C861.002258,109.913582 862.210327,113.060745 862.009399,116.379028 
	C861.949280,117.371529 862.000000,118.370735 862.000000,119.540291 
	C868.267761,116.964066 874.191467,113.782059 880.513367,112.071640 
	C899.076111,107.049332 916.460205,109.761833 932.061279,121.549065 
	C946.927490,132.781082 953.145508,148.024261 951.870789,166.219986 
	C951.185547,176.000320 947.134521,184.748932 940.996582,192.593124 
	C932.055115,204.020218 920.018250,210.456467 906.231384,212.614487 
	C895.137451,214.350983 883.678711,213.675278 873.091858,208.583664 
	C871.085388,207.618652 869.075012,206.661743 866.704712,205.528076 
	C867.483948,225.209351 868.241943,244.355057 869.000000,264.000610 
M866.000000,160.551651 
	C865.407410,170.175140 868.074646,178.360397 875.472046,185.081528 
	C884.264832,193.070496 902.338562,195.082535 911.981079,184.749374 
	C920.389404,175.738892 922.606750,165.148453 920.682190,153.984756 
	C919.010010,144.285126 913.109314,135.823029 903.579407,132.447266 
	C887.304688,126.682320 865.320435,137.906982 866.000000,160.551651 
z"/>
<path fill="#FFFFFF" opacity="1.000000" stroke="none" 
	d="
M739.751953,119.913391 
	C760.093994,105.114388 791.983459,106.780319 810.202637,122.632881 
	C818.704712,130.030502 824.584412,138.774536 827.444702,149.808075 
	C832.078552,167.682922 823.566467,189.956100 808.739319,201.184296 
	C795.546387,211.174911 780.916138,214.427826 765.146423,212.768997 
	C757.817261,211.998062 750.747009,208.765884 742.718323,206.401764 
	C743.129089,210.643204 743.677185,215.071014 743.960815,219.515701 
	C744.401794,226.425262 744.914551,233.344894 744.953552,240.262756 
	C745.078613,262.419403 745.000610,284.577209 744.999634,306.734589 
	C744.999329,313.454163 738.421875,318.589630 731.765381,316.875183 
	C728.998474,316.162537 726.374390,314.905609 723.668579,313.943176 
	C719.775146,312.558350 718.250854,309.543854 718.009399,305.699982 
	C716.988708,289.455231 715.601685,273.220856 715.095825,256.959442 
	C714.383606,234.061661 714.184631,211.144043 714.066223,188.233368 
	C714.011536,177.653961 714.432922,167.056946 715.061707,156.493118 
	C715.801758,144.060883 716.981873,131.654404 718.007446,119.239761 
	C718.721436,110.595985 724.421265,107.530472 734.629883,110.282196 
	C735.685974,110.566872 736.688660,111.049866 737.274658,111.272850 
	C738.009399,114.311836 738.680054,117.086021 739.751953,119.913391 
M795.974365,173.171021 
	C799.844055,163.114136 798.427612,153.123047 793.441345,144.232117 
	C788.180298,134.851456 779.459167,129.571899 768.193054,131.086472 
	C756.758911,132.623642 748.198059,138.365189 743.962524,149.661758 
	C741.408203,156.474533 741.574158,163.310806 743.004944,170.250687 
	C746.529114,187.343765 764.687378,194.497421 777.478271,191.162842 
	C786.859192,188.717209 792.040649,182.249725 795.974365,173.171021 
z"/>
<path fill="#000000" opacity="1.000000" stroke="none" 
	d="
M625.000000,156.343262 
	C626.190857,146.575577 631.229431,139.315079 638.622375,134.293091 
	C649.624084,126.819672 661.690735,132.383560 667.838745,140.628265 
	C676.656250,152.452820 677.433716,165.521820 670.685852,178.301895 
	C666.083801,187.018005 658.326599,192.858429 647.717041,191.883591 
	C638.091675,190.999161 632.469543,184.275436 627.963684,176.365356 
	C624.434631,170.170044 624.971741,163.474045 625.000000,156.343262 
z"/>
<path fill="#000000" opacity="1.000000" stroke="none" 
	d="
M1032.380981,150.136719 
	C1027.951416,153.187027 1024.154785,157.189529 1019.591919,158.477509 
	C1010.765259,160.969070 1001.508057,160.835861 992.430359,158.951477 
	C992.574585,143.667343 1004.873840,127.704903 1022.736023,131.157242 
	C1031.162964,132.785965 1036.855713,141.307144 1032.380981,150.136719 
z"/>
<path fill="#000000" opacity="1.000000" stroke="none" 
	d="
M866.000000,160.077209 
	C865.320435,137.906982 887.304688,126.682320 903.579407,132.447266 
	C913.109314,135.823029 919.010010,144.285126 920.682190,153.984756 
	C922.606750,165.148453 920.389404,175.738892 911.981079,184.749374 
	C902.338562,195.082535 884.264832,193.070496 875.472046,185.081528 
	C868.074646,178.360397 865.407410,170.175140 866.000000,160.077209 
z"/>
<path fill="#000000" opacity="1.000000" stroke="none" 
	d="
M795.795959,173.537872 
	C792.040649,182.249725 786.859192,188.717209 777.478271,191.162842 
	C764.687378,194.497421 746.529114,187.343765 743.004944,170.250687 
	C741.574158,163.310806 741.408203,156.474533 743.962524,149.661758 
	C748.198059,138.365189 756.758911,132.623642 768.193054,131.086472 
	C779.459167,129.571899 788.180298,134.851456 793.441345,144.232117 
	C798.427612,153.123047 799.844055,163.114136 795.795959,173.537872 
z"/>
</svg>
