<svg version="1.1" id="Layer_1" xmlns="http://www.w3.org/2000/svg" xmlns:xlink="http://www.w3.org/1999/xlink" x="0px" y="0px"
	 width="100%" viewBox="0 0 2520 569" enable-background="new 0 0 2520 569" xml:space="preserve">
<path fill="#FEFEFE" opacity="1.000000" stroke="none" 
	d="
M68.015076,274.165955 
	C67.011597,268.777496 69.418297,265.990997 73.341255,263.224792 
	C127.239754,225.219238 180.983185,186.993835 234.857895,148.954391 
	C247.864090,139.771072 262.793457,138.393082 278.172058,139.477463 
	C291.522125,140.418808 302.669434,146.248947 313.558411,153.737137 
	C365.000824,189.113434 416.699249,224.117783 468.363831,259.170044 
	C471.631989,261.387360 473.139771,263.616943 473.123779,267.901672 
	C472.916992,323.228363 472.985352,378.556061 472.972778,433.883484 
	C472.967438,457.466583 452.732330,477.842926 429.246246,477.880585 
	C405.248840,477.919067 381.251343,477.899628 357.253906,477.905487 
	C355.790131,477.905823 354.326355,477.905548 352.221375,477.905548 
	C352.221375,475.723785 352.223145,473.950409 352.221100,472.177002 
	C352.180939,437.680786 352.401428,403.181396 351.980316,368.689819 
	C351.793579,353.396729 346.425323,340.050110 332.921112,331.301392 
	C325.520721,326.507050 317.105164,324.145081 308.430511,324.042938 
	C283.103821,323.744598 257.740936,323.182709 232.449890,324.182434 
	C209.443939,325.091858 191.927338,336.882355 188.894226,363.933075 
	C188.358749,368.708740 188.035110,373.534485 188.022659,378.338135 
	C187.941879,409.501312 187.974274,440.664734 187.969650,471.828094 
	C187.969376,473.640961 187.969604,475.453857 187.969604,477.896820 
	C185.945786,477.896820 184.181503,477.896820 182.417206,477.896820 
	C159.919601,477.896912 137.416458,477.585449 114.926003,477.986603 
	C93.377930,478.370911 72.715164,464.317352 68.240936,439.606476 
	C67.918381,437.825043 68.053253,435.952484 68.052612,434.122253 
	C68.034065,380.962219 68.025368,327.802155 68.015076,274.165955 
z"/>
<path fill="#FEFEFE" opacity="1.000000" stroke="none" 
	d="
M1458.764648,338.701355 
	C1495.064209,268.166290 1531.174072,197.956268 1567.246826,127.727211 
	C1569.364990,123.603653 1572.344971,121.821396 1577.141724,121.907501 
	C1591.302368,122.161705 1605.470337,121.996368 1619.635498,121.998787 
	C1629.195801,122.000420 1633.019287,128.163544 1628.607910,136.670670 
	C1618.797119,155.589859 1608.868774,174.448059 1599.048462,193.362305 
	C1568.324707,252.538025 1537.653809,311.741241 1506.910034,370.906525 
	C1494.358887,395.060486 1474.675903,409.906433 1447.710938,413.785828 
	C1411.651978,418.973572 1381.663086,399.338501 1367.130859,371.596771 
	C1337.240723,314.536499 1307.748779,257.267609 1278.076904,200.092911 
	C1267.207275,179.148163 1256.187378,158.280060 1245.523926,137.231094 
	C1244.117310,134.454529 1243.652832,130.690857 1244.130249,127.597115 
	C1244.743530,123.623627 1247.931763,121.906296 1252.194336,121.946327 
	C1266.691528,122.082497 1281.197754,122.258514 1295.685669,121.868805 
	C1301.402100,121.715042 1304.536743,124.067696 1306.963867,128.794815 
	C1328.546875,170.832001 1350.209229,212.828506 1371.851318,254.835358 
	C1387.067993,284.370758 1402.393188,313.850983 1417.442139,343.471588 
	C1421.599854,351.655396 1427.710815,356.494232 1436.862427,356.503967 
	C1446.056030,356.513733 1452.447266,351.712280 1456.250732,343.387146 
	C1456.933960,341.891571 1457.790405,340.475159 1458.764648,338.701355 
z"/>
<path fill="#FEFEFE" opacity="1.000000" stroke="none" 
	d="
M2285.800537,405.939697 
	C2273.995850,405.943176 2262.664307,405.981567 2251.333252,405.937622 
	C2244.455566,405.910980 2241.029297,402.425873 2241.027832,395.511963 
	C2241.020996,363.184479 2241.038330,330.856995 2241.047119,298.529510 
	C2241.047607,296.740509 2241.047119,294.951477 2241.047119,292.983032 
	C2219.203125,292.308411 2199.657959,286.184875 2182.415771,273.200867 
	C2171.477539,264.964020 2162.865234,254.771835 2156.144531,242.914948 
	C2136.346191,207.984299 2116.518799,173.069870 2096.852783,138.064697 
	C2095.319336,135.335159 2093.996826,131.860031 2094.274658,128.890350 
	C2094.667725,124.690628 2097.531006,121.928757 2102.428711,121.960640 
	C2118.091797,122.062607 2133.756836,122.071411 2149.419678,121.947708 
	C2153.343994,121.916718 2155.288086,123.980560 2157.040039,127.078674 
	C2173.239014,155.727295 2189.743408,184.205750 2205.692383,212.992081 
	C2214.055664,228.086792 2226.710938,234.870041 2243.442383,234.973343 
	C2261.271729,235.083405 2279.103271,235.107178 2296.932129,234.966629 
	C2313.844727,234.833328 2326.656982,227.875031 2335.036865,212.634750 
	C2350.542969,184.433258 2366.528076,156.495270 2382.223633,128.397339 
	C2384.716797,123.934265 2387.799561,121.724632 2393.288330,121.869110 
	C2407.775635,122.250465 2422.279785,121.985268 2436.777100,122.003540 
	C2444.895264,122.013771 2448.839844,128.514755 2444.878174,135.812332 
	C2439.360352,145.976974 2433.524170,155.968719 2427.816650,166.030197 
	C2412.700928,192.677643 2398.070068,219.615845 2382.327148,245.887558 
	C2365.969482,273.185883 2341.430664,288.596710 2309.604492,292.026428 
	C2307.789551,292.222015 2305.993408,292.616608 2304.176025,292.757172 
	C2302.557617,292.882324 2300.922119,292.783417 2298.828369,292.783417 
	C2298.828369,295.012054 2298.827393,296.794617 2298.828613,298.577179 
	C2298.850586,330.071472 2298.874023,361.565765 2298.894531,393.060059 
	C2298.900879,402.915009 2295.967285,405.904938 2285.800537,405.939697 
z"/>
<path fill="#FEFEFE" opacity="1.000000" stroke="none" 
	d="
M2030.995605,405.927917 
	C1969.496948,405.924408 1908.490967,406.448608 1847.499512,405.735596 
	C1805.688232,405.246796 1775.446289,385.060059 1757.317871,347.358673 
	C1751.613281,335.494965 1749.057373,322.658295 1749.049561,309.431580 
	C1749.014893,250.431839 1749.019897,191.432083 1749.018311,132.432327 
	C1749.018066,124.892067 1751.936523,122.001915 1759.492798,121.999245 
	C1771.659424,121.994949 1783.826050,121.996513 1795.992676,121.998596 
	C1804.169189,122.000000 1806.960693,124.773819 1806.958984,132.949905 
	C1806.947266,191.282974 1806.903809,249.616074 1806.927124,307.949127 
	C1806.934326,326.136169 1818.275635,341.375336 1835.765137,346.402954 
	C1839.828735,347.571045 1844.239136,347.973053 1848.491089,347.978912 
	C1912.990723,348.067719 1977.490356,348.030670 2041.990112,348.026093 
	C2050.603760,348.025482 2053.649170,350.965393 2053.673584,359.621613 
	C2053.706299,371.287811 2053.667725,382.955475 2053.513916,394.620575 
	C2053.403076,403.016479 2050.341064,405.915466 2041.993774,405.934448 
	C2038.494019,405.942383 2034.994263,405.930847 2030.995605,405.927917 
z"/>
<path fill="#FEFEFE" opacity="1.000000" stroke="none" 
	d="
M693.048828,321.717834 
	C700.935547,339.464844 714.140625,348.139343 733.369019,348.096405 
	C797.513306,347.953094 861.658081,348.030518 925.802673,348.026093 
	C934.673218,348.025482 937.000183,350.333130 937.001343,359.104797 
	C937.002869,371.100677 937.004822,383.096527 937.000549,395.092407 
	C936.997620,403.218628 934.231995,405.930359 925.890259,405.932434 
	C906.563599,405.937256 887.236877,405.919556 867.910217,405.918182 
	C822.259277,405.914886 776.607971,406.025818 730.957520,405.883087 
	C688.013611,405.748810 650.722229,378.693054 637.704224,337.720764 
	C634.899231,328.892426 633.285828,319.301758 633.223572,310.048126 
	C632.824768,250.737839 633.008972,191.423630 633.009216,132.110703 
	C633.009216,124.798775 635.823181,122.003334 643.136780,121.999939 
	C655.965698,121.993988 668.794617,121.982399 681.623535,122.006081 
	C687.086853,122.016167 690.506897,125.247002 690.911804,130.739670 
	C691.009583,132.065414 690.930359,133.404327 690.929749,134.737183 
	C690.902710,191.717545 690.820740,248.698029 690.939819,305.678101 
	C690.950684,310.897675 692.247375,316.114563 693.048828,321.717834 
z"/>
<path fill="#FEFEFE" opacity="1.000000" stroke="none" 
	d="
M144.232712,128.251160 
	C174.182892,108.057831 203.870316,88.122711 233.491440,68.089592 
	C243.489166,61.328007 254.453491,58.280552 266.467651,57.974419 
	C280.751953,57.610443 294.440247,59.079903 306.642792,67.436462 
	C319.079010,75.953041 331.611572,84.329132 344.114410,92.748222 
	C379.443176,116.537682 414.890015,140.154205 450.058167,164.178726 
	C464.921600,174.332443 473.003693,188.639236 472.984039,207.021622 
	C472.975311,215.184769 472.982574,223.347931 472.982574,232.488983 
	C470.935699,231.171677 469.360382,230.208435 467.836487,229.169769 
	C414.329987,192.700485 360.776459,156.299728 307.363831,119.693420 
	C294.652802,110.981934 280.643982,108.797691 265.755463,109.410904 
	C251.702164,109.989723 239.790649,115.330009 228.373062,123.538559 
	C176.596710,160.762650 124.472572,197.502975 72.479477,234.425674 
	C71.010071,235.469162 69.606682,236.605652 67.679924,238.074234 
	C67.549377,236.461777 67.342590,235.233856 67.368057,234.010773 
	C67.558762,224.854248 67.854736,215.699661 68.004791,206.542603 
	C68.290535,189.104767 75.689613,175.120422 89.663338,165.174469 
	C107.452728,152.512634 125.823753,140.667984 144.232712,128.251160 
z"/>
<path fill="#FFFFFF" opacity="1.000000" stroke="none" 
	d="
M1062.999634,369.000000 
	C1062.999756,289.678955 1062.999268,210.857880 1063.000732,132.036819 
	C1063.000854,124.284019 1065.288086,122.002419 1073.055298,122.000458 
	C1085.886597,121.997223 1098.718628,122.073639 1111.548950,121.962852 
	C1116.524414,121.919891 1119.345215,124.128021 1120.105835,128.984848 
	C1120.386475,130.775513 1120.677612,132.591263 1120.676636,134.395416 
	C1120.634033,220.548264 1120.557617,306.701111 1120.492188,392.853943 
	C1120.486206,400.719757 1119.047607,403.651703 1114.017822,405.326141 
	C1112.646851,405.782501 1111.112915,405.906494 1109.652710,405.912384 
	C1097.654785,405.960846 1085.656616,405.963928 1073.658447,405.942383 
	C1066.346313,405.929230 1063.008789,402.633057 1063.001709,395.495239 
	C1062.993164,386.830170 1062.999756,378.165070 1062.999634,369.000000 
z"/>
<path fill="#FEFEFE" opacity="1.000000" stroke="none" 
	d="
M212.088318,402.000061 
	C212.690918,392.080139 212.458374,382.512238 214.095230,373.275665 
	C216.430222,360.099426 225.865921,352.149872 238.534164,351.421265 
	C259.733276,350.201935 281.095306,350.269318 302.307709,351.364563 
	C316.677917,352.106476 327.568298,364.576874 327.783142,379.325104 
	C328.258759,411.971222 327.931213,444.629059 327.931213,477.605011 
	C289.615692,477.605011 251.198044,477.605011 212.088028,477.605011 
	C212.088028,452.661957 212.088028,427.580994 212.088318,402.000061 
z"/>
</svg>
