<?xml version="1.0" encoding="UTF-8"?><svg xmlns="http://www.w3.org/2000/svg" class="header" enable-background="new 0 0 151 40" height="40px" preserveAspectRatio="xMidYMid meet" viewBox="0 0 151 40" width="151px"><style>
        .cls-1{fill:white;}
        .cls-2{fill:white;}
        .cls-3{fill:white;}
        .cls-4{fill:white;}

        .invert .cls-1{fill:white;}
        .invert .cls-2{fill:white;}
    </style><path class="cls-1" clip-rule="evenodd" d="M144.81 9.78V6.64h-1.23v-.42h2.96v.42h-1.23v3.14h-.5zm2.33 0V6.22h.74l.88 2.52c.09.23.15.41.18.53l.2-.57.9-2.48h.66v3.56h-.48V6.8l-1.08 2.98h-.45l-1.08-3.03v3.03h-.47zm-4.74 3.09L132.08 26.3l-1.89 2.47h12.08l-.4 2.64H124.3l12.24-15.92h-10.98l.63-2.73h15.46l.74-.02v.13zM108.11 40c1.85-1.8 5.48-9.61 5.48-9.61l-7.98-17.65h3.28L115 27.13l6.25-14.39h3.05s-8 18.38-12.56 27.26h-3.63zm-8.35-9.74c-1.54.5-3.03 1.16-4.6 1.47-5.48 1.1-10.25-2.2-11.04-7.53-.36-2.44-.19-4.84 1-7.07 1.66-3.15 4.47-4.65 8.04-4.94 1.74-.14 3.47.04 5.14.55.94.3 1.86.3 2.81.18.58-.07 1.15-.11 1.79-.18.22 6.1-.26 12.2.33 18.39l-2.96.87-.51-1.74zm-.26-8.36c0-1.8-.02-3.6 0-5.4 0-.4-.1-.63-.51-.75-.83-.25-1.63-.6-2.46-.8-3.27-.76-6.32.34-7.85 2.85a8.69 8.69 0 00-.86 6.96c.86 3.32 3.69 5.15 7.17 4.52 1.38-.24 2.67-.88 4.01-1.33.4-.13.51-.38.5-.78-.02-1.75 0-3.51 0-5.27zm-26.06-6.4h-4.02v-2.67h3.97c.02-.29.05-.51.05-.74 0-1.49.01-2.98-.01-4.47-.01-.4.13-.57.53-.66 1.02-.22 2.02-.48 3.11-.74v6.6h5.4v2.67H77.1c-.02.27-.04.48-.04.69v8.61c.01.73.07 1.47.17 2.2a5.49 5.49 0 002.88 4.1l1.05.61c-1.75 0-3.3.01-4.85-.01-.2 0-.4-.18-.58-.3a5.45 5.45 0 01-2.2-4.49c-.08-3.3-.07-6.6-.1-9.9v-1.5zm-6.89 1.02c-1.36-.63-2.63-1.34-3.99-1.79-.87-.29-1.9-.3-2.84-.22-1.14.09-1.91.89-2.08 1.82-.2 1.1.2 1.98 1.3 2.52 1.08.54 2.25.94 3.38 1.43 1.1.47 2.23.9 3.26 1.5 2.18 1.24 2.93 3.16 2.56 5.5a5.09 5.09 0 01-3.95 4.28c-3.6 1.01-6.92.2-9.97-1.77a.59.59 0 01-.23-.48c.1-.9.25-1.82.4-2.8.56.34 1.05.67 1.56.96 1.69.97 3.45 1.8 5.48 1.74a5.65 5.65 0 001.83-.36 2.23 2.23 0 001.55-2c.07-1-.3-1.8-1.21-2.28-1.06-.55-2.19-.98-3.29-1.46-1.08-.48-2.2-.88-3.23-1.44-2.32-1.27-3.11-3.13-2.56-5.74.46-2.16 2.26-3.7 4.7-4 2.77-.33 5.3.4 7.68 1.68.13.07.27.34.23.49-.17.84-.4 1.67-.58 2.42z" fill-rule="evenodd"/><path class="cls-2" clip-rule="evenodd" d="M22.13 2.12c.29-.35.52-.66.78-.93.1-.1.3-.18.43-.15l10.44 2.77c.02 0 .03.03.1.1L27 20.55l-6.1-2.75-.06.1.45.32c1.22.79 2.45 1.55 3.65 2.36.17.11.34.39.33.59-.06 4.75-.14 9.51-.22 14.27v2.9l-.6-.38c-3.3-2.27-6.58-4.56-9.9-6.81-.59-.4-.21-.92-.4-1.53l5.88 3.62.07-.1-.37-.3c-1.58-1.16-3.14-2.36-4.77-3.46-.66-.44-.86-.93-.67-1.73l6.08 3.32.07-.11-1.71-1.14c-1.2-.78-2.36-1.62-3.6-2.31-.86-.48-.98-1.09-.77-1.98l5.6 3.28.08-.1-.43-.35c-1.52-1.06-3.01-2.16-4.57-3.16-.68-.43-.86-.92-.67-1.7l5.7 3.34.07-.1c-.14-.12-.29-.24-.44-.34l-4.47-3.12c-.99-.7-.99-.7-.86-2.01l5.8 3.4.08-.1c-.14-.11-.28-.23-.43-.33-1.62-1.14-3.22-2.3-4.88-3.39-.65-.42-.67-.91-.53-1.61l6 3.16.06-.1c-.12-.1-.24-.2-.37-.27l-5.03-3.19c-.76-.48-.83-.68-.56-1.68l6.3 3.14.07-.12-1.07-.65c-1.61-.96-3.2-1.94-4.83-2.88-.43-.25-.65-.52-.56-1 .11-.52-.12-.82-.63-1.02-.48-.18-.93-.45-1.45-.72.25-.3.43-.61.7-.82.12-.1.44-.07.62 0l5.7 2.57c.23.1.47.2.76.19l-6.46-3.54c.33-.39.6-.77.94-1.09.1-.08.39-.04.54.03 1.96.87 3.9 1.76 5.86 2.64.16.07.34.13.56.1l-6.37-3.5c.29-.35.52-.69.82-.95.12-.1.44-.09.62-.01 1.85.82 3.7 1.66 5.55 2.5.2.08.4.16.65.13l-6.19-3.4c.3-.34.53-.68.83-.96.09-.08.38-.04.53.03l5.35 2.4.55.22.06-.12-5.9-3.25c.28-.35.5-.68.78-.92.13-.11.45-.1.64-.04 1.92.77 3.83 1.57 5.74 2.35.2.08.4.15.65.11L19.5 5.26c.26-.3.45-.62.73-.84.13-.11.45-.1.64-.03 1.87.67 3.74 1.37 5.61 2.06l.57.2.05-.13-6.24-2.88c.18-.21.34-.38.46-.57.2-.33.44-.36.8-.25 1.89.6 3.79 1.15 5.68 1.72.19.06.38.1.58.15l.04-.13-6.3-2.44z" fill-rule="evenodd"/><path class="cls-1" clip-rule="evenodd" d="M0 36.26c.87-.3 1.75-.61 2.62-.94 3.4-1.29 6.78-2.6 10.18-3.87.4-.15.52-.34.52-.75-.02-5.02-.02-10.05 0-15.07 0-.41-.11-.68-.47-.9-.42-.27-.8-.59-1.25-.92l2.2-2.74L22.37.45c.11-.14.18-.3.27-.45h.45c1.37.36 2.73.73 4.1 1.08 2.16.54 4.32 1.06 6.47 1.61.22.06.46.2.58.37l10.12 15.38.12.24-2.5-.98v.7c0 5 0 10.02.02 15.03 0 .43-.13.62-.55.78-4.87 1.78-9.74 3.56-14.57 5.43-.92.35-1.74.18-2.6.06C16.22 38.6 8.2 37.5.16 36.38H0v-.1zM22.13 2.12l6.29 2.44-.05.13-.57-.15c-1.9-.57-3.79-1.13-5.68-1.72-.36-.11-.6-.08-.8.25-.12.2-.28.36-.46.57l6.24 2.88-.06.12-.56-.19c-1.87-.69-3.74-1.39-5.61-2.06-.2-.07-.5-.08-.64.03-.28.22-.47.53-.73.84l6.37 3.21a1.2 1.2 0 01-.64-.1c-1.91-.8-3.82-1.59-5.74-2.35-.18-.08-.5-.08-.64.03-.29.24-.5.57-.79.92l5.9 3.25-.05.11-.55-.2C21.58 9.31 19.8 8.5 18 7.71c-.15-.07-.44-.11-.53-.03-.3.28-.54.62-.83.97l6.19 3.4c-.25.02-.46-.06-.65-.14-1.85-.84-3.7-1.68-5.55-2.5-.18-.08-.5-.09-.62.01-.3.26-.53.6-.82.95l6.37 3.5a.99.99 0 01-.56-.1c-1.95-.88-3.9-1.77-5.86-2.64-.15-.07-.45-.11-.54-.03-.33.32-.61.7-.94 1.09l6.45 3.54c-.28.01-.52-.08-.75-.19-1.9-.85-3.79-1.72-5.7-2.56-.18-.08-.5-.1-.63 0-.26.2-.45.5-.7.81.53.27.98.54 1.46.72.51.2.74.5.63 1.03-.1.47.13.74.56.99 1.62.94 3.22 1.92 4.83 2.88l1.07.66-.07.1-6.3-3.13c-.27 1-.2 1.2.56 1.68l5.03 3.19c.13.08.25.18.37.27l-.07.1c-1.98-1.05-3.96-2.1-6-3.16-.13.7-.11 1.19.54 1.61 1.66 1.09 3.26 2.25 4.89 3.39l.42.33-.08.1-5.8-3.4c-.13 1.32-.13 1.32.86 2l4.47 3.13c.15.1.3.22.45.34l-.08.1c-1.9-1.1-3.79-2.22-5.7-3.34-.2.78-.01 1.27.67 1.7 1.56 1 3.05 2.1 4.56 3.16.16.1.3.23.44.34l-.09.11-5.6-3.28c-.2.9-.08 1.5.78 1.98 1.24.69 2.4 1.53 3.6 2.31l1.72 1.14-.08.11-6.08-3.32c-.2.8.02 1.29.67 1.73 1.63 1.1 3.18 2.3 4.77 3.46l.37.3-.07.1-5.89-3.62c.2.61-.18 1.12.42 1.53 3.3 2.25 6.59 4.54 9.88 6.81l.6.37.01-2.9c.08-4.75.16-9.5.22-14.26 0-.2-.16-.47-.33-.6-1.2-.8-2.43-1.56-3.65-2.35l-.45-.32.07-.1 6.1 2.75c2.3-5.61 4.6-11.13 6.86-16.62-.07-.08-.08-.1-.1-.1-3.48-.94-6.96-1.86-10.44-2.78-.12-.03-.33.05-.43.15-.27.27-.5.58-.78.93zm15.23 32.57c1.12-.38 2.16-.76 3.2-1.08.44-.13.57-.32.57-.76-.02-5.23-.02-10.46-.02-15.69v-.7c.62.28 1.14.53 1.65.78l.06-.08L34.3 5.42l-7.2 16.34-1.17-.7v17.53c1.64-.56 3.23-1.1 4.8-1.66.15-.05.28-.32.29-.5.02-.99 0-1.98 0-2.98 0-2.5 0-4.99.02-7.49 0-.18.14-.5.27-.53 2-.53 4.02-1.03 6.06-1.54v10.8zm-5.5 1.87c1.63-.55 3.18-1.07 4.72-1.63.13-.04.21-.35.2-.53-.04-2.4-.12-4.8-.18-7.2v-2.27c-1.56.4-3.01.75-4.45 1.13-.12.03-.27.24-.27.37-.02 3.34-.02 6.68-.02 10.13z" fill-rule="evenodd"/><path class="cls-3" clip-rule="evenodd" d="M37.36 34.69v-10.8c-2.04.51-4.06 1-6.06 1.54-.13.03-.27.35-.27.53-.02 2.5-.01 5-.01 7.5 0 .99.01 1.98-.01 2.98 0 .17-.14.44-.29.49-1.57.56-3.16 1.1-4.8 1.66V21.06l1.17.7L34.3 5.42l8.52 11.74-.06.08-1.64-.79v16.4c0 .44-.12.63-.55.76-1.05.32-2.09.7-3.2 1.08z" fill-rule="evenodd"/><path class="cls-3" clip-rule="evenodd" d="M31.86 36.56c0-3.45 0-6.8.02-10.13 0-.13.15-.34.27-.37 1.44-.38 2.89-.74 4.45-1.13v2.26c.06 2.4.14 4.8.19 7.2 0 .19-.08.5-.2.54-1.55.56-3.1 1.08-4.73 1.63z" fill-rule="evenodd"/></svg>
